<svg version="1.1" xmlns="http://www.w3.org/2000/svg">
	<g fill="#fff">
		<path d="m36.569 14.261a22.467 22.467 0 0 0-22.356 22.467 22.467 22.467 0 0 0 20.104 22.339 52.424 52.424 0 0 0-5.1254 22.596 52.424 52.424 0 0 0 52.424 52.424 52.424 52.424 0 0 0 52.424-52.424 52.424 52.424 0 0 0-5.1195-22.596 22.467 22.467 0 0 0 20.098-22.339 22.467 22.467 0 0 0-22.467-22.467 22.467 22.467 0 0 0-22.339 20.104 52.424 52.424 0 0 0-22.596-5.1254 52.424 52.424 0 0 0-22.596 5.1195 22.467 22.467 0 0 0-22.339-20.098 22.467 22.467 0 0 0-0.11096 0zm45.046 74.891a7.4891 7.4891 0 0 1 7.4891 7.4892 7.4891 7.4891 0 0 1-3.376 6.2546l3.376 16.213h-14.978l3.376-16.213a7.4891 7.4891 0 0 1-3.376-6.2546 7.4891 7.4891 0 0 1 7.4891-7.4892z" stroke="#bada55" stroke-width="28.305"/>
		<path d="m36.569 14.261a22.467 22.467 0 0 0-22.356 22.467 22.467 22.467 0 0 0 20.104 22.339 52.424 52.424 0 0 0-5.1254 22.596 52.424 52.424 0 0 0 52.424 52.424 52.424 52.424 0 0 0 52.424-52.424 52.424 52.424 0 0 0-5.1195-22.596 22.467 22.467 0 0 0 20.098-22.339 22.467 22.467 0 0 0-22.467-22.467 22.467 22.467 0 0 0-22.339 20.104 52.424 52.424 0 0 0-22.596-5.1254 52.424 52.424 0 0 0-22.596 5.1195 22.467 22.467 0 0 0-22.339-20.098 22.467 22.467 0 0 0-0.11096 0zm45.046 74.891a7.4891 7.4891 0 0 1 7.4891 7.4892 7.4891 7.4891 0 0 1-3.376 6.2546l3.376 16.213h-14.978l3.376-16.213a7.4891 7.4891 0 0 1-3.376-6.2546 7.4891 7.4891 0 0 1 7.4891-7.4892z"/>
	</g>
</svg>
