<?xml version="1.0" encoding="UTF-8" standalone="no"?>
<svg
   xmlns:dc="http://purl.org/dc/elements/1.1/"
   xmlns:cc="http://creativecommons.org/ns#"
   xmlns:rdf="http://www.w3.org/1999/02/22-rdf-syntax-ns#"
   xmlns:svg="http://www.w3.org/2000/svg"
   xmlns="http://www.w3.org/2000/svg"
   xmlns:sodipodi="http://sodipodi.sourceforge.net/DTD/sodipodi-0.dtd"
   xmlns:inkscape="http://www.inkscape.org/namespaces/inkscape"
   version="1.1"
   id="svg8"
   sodipodi:docname="logo.svg"
   width="163.11011"
   height="148.13406"
   inkscape:version="1.0.1 (3bc2e813f5, 2020-09-07)">
  <metadata
     id="metadata14">
    <rdf:RDF>
      <cc:Work
         rdf:about="">
        <dc:format>image/svg+xml</dc:format>
        <dc:type
           rdf:resource="http://purl.org/dc/dcmitype/StillImage" />
        <dc:title></dc:title>
      </cc:Work>
    </rdf:RDF>
  </metadata>
  <defs
     id="defs12" />
  <sodipodi:namedview
     pagecolor="#ffffff"
     bordercolor="#666666"
     borderopacity="1"
     objecttolerance="10"
     gridtolerance="10"
     guidetolerance="10"
     inkscape:pageopacity="0"
     inkscape:pageshadow="2"
     inkscape:window-width="1753"
     inkscape:window-height="1285"
     id="namedview10"
     showgrid="false"
     fit-margin-top="0"
     fit-margin-left="0"
     fit-margin-right="0"
     fit-margin-bottom="0"
     inkscape:zoom="2.6583333"
     inkscape:cx="61.649823"
     inkscape:cy="33.57815"
     inkscape:window-x="1469"
     inkscape:window-y="791"
     inkscape:window-maximized="0"
     inkscape:current-layer="svg8" />
  <g
     fill="#ffffff"
     id="g6"
     transform="translate(-0.06049985,-0.10543864)">
    <path
       d="m 36.569,14.261 a 22.467,22.467 0 0 0 -22.356,22.467 22.467,22.467 0 0 0 20.104,22.339 52.424,52.424 0 0 0 -5.1254,22.596 52.424,52.424 0 0 0 52.424,52.424 52.424,52.424 0 0 0 52.424,-52.424 52.424,52.424 0 0 0 -5.1195,-22.596 22.467,22.467 0 0 0 20.098,-22.339 22.467,22.467 0 0 0 -22.467,-22.467 22.467,22.467 0 0 0 -22.339,20.104 52.424,52.424 0 0 0 -22.596,-5.1254 52.424,52.424 0 0 0 -22.596,5.1195 22.467,22.467 0 0 0 -22.339,-20.098 22.467,22.467 0 0 0 -0.11096,0 z m 45.046,74.891 a 7.4891,7.4891 0 0 1 7.4891,7.4892 7.4891,7.4891 0 0 1 -3.376,6.2546 l 3.376,16.213 h -14.978 l 3.376,-16.213 a 7.4891,7.4891 0 0 1 -3.376,-6.2546 7.4891,7.4891 0 0 1 7.4891,-7.4892 z"
       stroke="#bada55"
       stroke-width="28.305"
       id="path2" />
    <path
       d="m 36.569,14.261 a 22.467,22.467 0 0 0 -22.356,22.467 22.467,22.467 0 0 0 20.104,22.339 52.424,52.424 0 0 0 -5.1254,22.596 52.424,52.424 0 0 0 52.424,52.424 52.424,52.424 0 0 0 52.424,-52.424 52.424,52.424 0 0 0 -5.1195,-22.596 22.467,22.467 0 0 0 20.098,-22.339 22.467,22.467 0 0 0 -22.467,-22.467 22.467,22.467 0 0 0 -22.339,20.104 52.424,52.424 0 0 0 -22.596,-5.1254 52.424,52.424 0 0 0 -22.596,5.1195 22.467,22.467 0 0 0 -22.339,-20.098 22.467,22.467 0 0 0 -0.11096,0 z m 45.046,74.891 a 7.4891,7.4891 0 0 1 7.4891,7.4892 7.4891,7.4891 0 0 1 -3.376,6.2546 l 3.376,16.213 h -14.978 l 3.376,-16.213 a 7.4891,7.4891 0 0 1 -3.376,-6.2546 7.4891,7.4891 0 0 1 7.4891,-7.4892 z"
       id="path4" />
  </g>
</svg>
